<svg width="34" height="34" viewBox="0 0 34 34" fill="none" xmlns="http://www.w3.org/2000/svg">
<rect width="34" height="34" rx="10" fill="#F7F7F7"/>
<g clip-path="url(#clip0_1_4789)">
<path d="M15.9154 12.68L13.3782 9.75127C13.0857 9.41377 12.5494 9.41527 12.2097 9.75577L10.1232 11.846C9.50218 12.4678 9.32443 13.391 9.68368 14.1313C11.8299 18.575 15.4137 22.1638 19.8544 24.3163C20.5939 24.6755 21.5164 24.4978 22.1374 23.876L24.2434 21.7663C24.5847 21.425 24.5854 20.8858 24.2449 20.5933L21.3049 18.0695C20.9974 17.8055 20.5197 17.84 20.2114 18.149L19.1884 19.1735C19.1361 19.2284 19.0671 19.2646 18.9922 19.2765C18.9173 19.2884 18.8405 19.2754 18.7737 19.2395C17.1015 18.2766 15.7144 16.8877 14.7537 15.2143C14.7177 15.1473 14.7047 15.0704 14.7166 14.9954C14.7285 14.9203 14.7647 14.8513 14.8197 14.7988L15.8397 13.778C16.1487 13.4675 16.1824 12.9875 15.9154 12.6793V12.68Z" stroke="#70BC4E" stroke-width="1.5" stroke-linecap="round" stroke-linejoin="round"/>
</g>
<defs>
<clipPath id="clip0_1_4789">
<rect width="18" height="18" fill="white" transform="translate(8 8)"/>
</clipPath>
</defs>
</svg>
