<svg width="25" height="24" viewBox="0 0 25 24" fill="none" xmlns="http://www.w3.org/2000/svg">
<g clip-path="url(#clip0_202_2877)">
<path d="M9.375 16.5C8.75156 16.5 8.25 15.9984 8.25 15.375C8.25 14.7516 8.75156 14.25 9.375 14.25H16.125C16.7484 14.25 17.25 14.7516 17.25 15.375C17.25 15.9984 16.7484 16.5 16.125 16.5H9.375ZM8.25 0C8.87344 0 9.375 0.503906 9.375 1.125V3H16.125V1.125C16.125 0.503906 16.6266 0 17.25 0C17.8734 0 18.375 0.503906 18.375 1.125V3H20.25C21.9047 3 23.25 4.34297 23.25 6V21C23.25 22.6547 21.9047 24 20.25 24H5.25C3.59297 24 2.25 22.6547 2.25 21V6C2.25 4.34297 3.59297 3 5.25 3H7.125V1.125C7.125 0.503906 7.62656 0 8.25 0ZM21 9H4.5V21C4.5 21.4125 4.83562 21.75 5.25 21.75H20.25C20.6625 21.75 21 21.4125 21 21V9Z" fill="white"/>
</g>
<defs>
<clipPath id="clip0_202_2877">
<rect width="21" height="24" fill="white" transform="translate(2.25)"/>
</clipPath>
</defs>
</svg>
