<svg width="25" height="24" viewBox="0 0 25 24" fill="none" xmlns="http://www.w3.org/2000/svg">
<path opacity="0.3" d="M11.1249 12C11.1249 12.2984 11.2434 12.5845 11.4544 12.7955C11.6654 13.0065 11.9515 13.125 12.2499 13.125C12.5483 13.125 12.8344 13.0065 13.0454 12.7955C13.2564 12.5845 13.3749 12.2984 13.3749 12C13.3749 11.7016 13.2564 11.4155 13.0454 11.2045C12.8344 10.9935 12.5483 10.875 12.2499 10.875C11.9515 10.875 11.6654 10.9935 11.4544 11.2045C11.2434 11.4155 11.1249 11.7016 11.1249 12ZM15.8124 12C15.8124 12.2984 15.9309 12.5845 16.1419 12.7955C16.3529 13.0065 16.639 13.125 16.9374 13.125C17.2358 13.125 17.5219 13.0065 17.7329 12.7955C17.9439 12.5845 18.0624 12.2984 18.0624 12C18.0624 11.7016 17.9439 11.4155 17.7329 11.2045C17.5219 10.9935 17.2358 10.875 16.9374 10.875C16.639 10.875 16.3529 10.9935 16.1419 11.2045C15.9309 11.4155 15.8124 11.7016 15.8124 12ZM6.43739 12C6.43739 12.2984 6.55592 12.5845 6.76689 12.7955C6.97787 13.0065 7.26402 13.125 7.56239 13.125C7.86076 13.125 8.14691 13.0065 8.35788 12.7955C8.56886 12.5845 8.68739 12.2984 8.68739 12C8.68739 11.7016 8.56886 11.4155 8.35788 11.2045C8.14691 10.9935 7.86076 10.875 7.56239 10.875C7.26402 10.875 6.97787 10.9935 6.76689 11.2045C6.55592 11.4155 6.43739 11.7016 6.43739 12ZM21.9343 7.93125C21.4046 6.67266 20.6452 5.54297 19.6772 4.57266C18.716 3.60796 17.575 2.84114 16.3186 2.31563C15.0296 1.77422 13.6608 1.5 12.2499 1.5H12.203C10.7827 1.50703 9.40692 1.78828 8.11317 2.34141C6.8676 2.87232 5.73723 3.64049 4.78505 4.60312C3.82645 5.57109 3.07411 6.69609 2.5538 7.95C2.01473 9.24844 1.74286 10.6289 1.74989 12.0492C1.75784 13.6769 2.14292 15.2806 2.87489 16.7344V20.2969C2.87489 20.5828 2.98848 20.857 3.19066 21.0592C3.39285 21.2614 3.66708 21.375 3.95301 21.375H7.51786C8.97167 22.107 10.5753 22.492 12.203 22.5H12.2522C13.6561 22.5 15.0179 22.2281 16.2999 21.6961C17.5499 21.1768 18.6867 20.419 19.6468 19.4648C20.6147 18.5063 21.3765 17.3859 21.9085 16.1367C22.4616 14.843 22.7429 13.4672 22.7499 12.0469C22.7569 10.6195 22.4804 9.23438 21.9343 7.93125ZM18.3929 18.1969C16.7499 19.8234 14.5702 20.7188 12.2499 20.7188H12.21C10.7968 20.7117 9.39286 20.3602 8.15301 19.6992L7.95614 19.5938H4.65614V16.2938L4.55067 16.0969C3.88973 14.857 3.53817 13.4531 3.53114 12.0398C3.52176 9.70312 4.41473 7.50937 6.05301 5.85703C7.68895 4.20469 9.87567 3.29062 12.2124 3.28125H12.2522C13.4241 3.28125 14.5608 3.50859 15.6319 3.95859C16.6772 4.39687 17.6147 5.02734 18.421 5.83359C19.2249 6.6375 19.8577 7.57734 20.296 8.62266C20.7507 9.70547 20.978 10.8539 20.9733 12.0398C20.9593 14.3742 20.0429 16.5609 18.3929 18.1969Z" fill="white"/>
</svg>
