<svg width="10" height="10" viewBox="0 0 10 10" fill="none" xmlns="http://www.w3.org/2000/svg">
<path d="M9.73657 0.551817C9.90525 0.720539 10 0.949345 10 1.18792C10 1.42649 9.90525 1.6553 9.73657 1.82402L6.55516 5.00543L9.73657 8.18684C9.90047 8.35653 9.99115 8.5838 9.9891 8.81971C9.98705 9.05561 9.89243 9.28127 9.72561 9.44809C9.5588 9.6149 9.33314 9.70952 9.09723 9.71157C8.86133 9.71362 8.63406 9.62294 8.46437 9.45905L5.28296 6.27763L2.10155 9.45905C1.93186 9.62294 1.70459 9.71362 1.46869 9.71157C1.23278 9.70952 1.00712 9.6149 0.840305 9.44809C0.673489 9.28127 0.578868 9.05561 0.576817 8.8197C0.574768 8.5838 0.665454 8.35653 0.829345 8.18684L4.01076 5.00543L0.829346 1.82402C0.665454 1.65433 0.574768 1.42706 0.576817 1.19116C0.578868 0.955253 0.67349 0.729592 0.840305 0.562776C1.00712 0.395961 1.23278 0.301338 1.46869 0.299288C1.70459 0.297239 1.93186 0.387925 2.10155 0.551817L5.28296 3.73323L8.46437 0.551817C8.63309 0.383145 8.8619 0.288391 9.10047 0.288391C9.33905 0.288391 9.56785 0.383145 9.73657 0.551817Z" fill="#70BC4E"/>
</svg>
