<svg width="24" height="24" viewBox="0 0 24 24" fill="none" xmlns="http://www.w3.org/2000/svg">
<path d="M4 21.4V2.6C4 2.44087 4.06321 2.28826 4.17574 2.17574C4.28826 2.06321 4.44087 2 4.6 2H16.252C16.4111 2.00014 16.5636 2.06345 16.676 2.176L19.824 5.324C19.88 5.3799 19.9243 5.44632 19.9545 5.51943C19.9847 5.59254 20.0002 5.6709 20 5.75V21.4C20 21.4788 19.9845 21.5568 19.9543 21.6296C19.9242 21.7024 19.88 21.7685 19.8243 21.8243C19.7685 21.88 19.7024 21.9242 19.6296 21.9543C19.5568 21.9845 19.4788 22 19.4 22H4.6C4.52121 22 4.44319 21.9845 4.37039 21.9543C4.29759 21.9242 4.23145 21.88 4.17574 21.8243C4.12002 21.7685 4.07583 21.7024 4.04567 21.6296C4.01552 21.5568 4 21.4788 4 21.4V21.4Z" stroke="#191818" stroke-width="1.5" stroke-linecap="round" stroke-linejoin="round"/>
<path d="M16 5.39986V2.35386C16.0001 2.28394 16.021 2.21562 16.0599 2.15752C16.0988 2.09942 16.154 2.05414 16.2186 2.0274C16.2832 2.00066 16.3543 1.99365 16.4229 2.00726C16.4915 2.02086 16.5545 2.05448 16.604 2.10386L19.896 5.39586C19.9459 5.44517 19.9799 5.50823 19.9938 5.57698C20.0077 5.64573 20.0008 5.71706 19.974 5.78186C19.9471 5.84667 19.9016 5.90202 19.8432 5.94084C19.7848 5.97967 19.7161 6.00021 19.646 5.99986H16.6C16.4409 5.99986 16.2883 5.93664 16.1757 5.82412C16.0632 5.7116 16 5.55899 16 5.39986Z" fill="#191818" stroke="#191818" stroke-width="1.5" stroke-linecap="round" stroke-linejoin="round"/>
<path d="M8 14H12M8 10H16H8ZM8 18H16H8Z" stroke="#191818" stroke-width="1.5" stroke-linecap="round" stroke-linejoin="round"/>
</svg>
