<svg width="18" height="18" viewBox="0 0 18 18" fill="none" xmlns="http://www.w3.org/2000/svg">
<path d="M8.99996 15.8571C12.7871 15.8571 15.8571 12.7871 15.8571 8.99996C15.8571 5.21287 12.7871 2.14282 8.99996 2.14282C5.21287 2.14282 2.14282 5.21287 2.14282 8.99996C2.14282 12.7871 5.21287 15.8571 8.99996 15.8571Z" stroke="#70BC4E" stroke-width="1.14286" stroke-linecap="round" stroke-linejoin="round"/>
<path d="M8.99986 12.4284C10.8934 12.4284 12.4284 10.8934 12.4284 8.99986C12.4284 7.10631 10.8934 5.57129 8.99986 5.57129C7.10631 5.57129 5.57129 7.10631 5.57129 8.99986C5.57129 10.8934 7.10631 12.4284 8.99986 12.4284Z" stroke="#70BC4E" stroke-width="1.14286" stroke-linecap="round" stroke-linejoin="round"/>
<path d="M11.5714 6.4285L13.7142 4.28564M11.5714 11.5714L13.7142 13.7142M6.4285 11.5714L4.28564 13.7142M6.4285 6.4285L4.28564 4.28564" stroke="#70BC4E" stroke-width="1.14286" stroke-linecap="round" stroke-linejoin="round"/>
</svg>
