<svg width="24" height="24" viewBox="0 0 24 24" fill="none" xmlns="http://www.w3.org/2000/svg">
<path d="M3.75 10.5C3.55109 10.5 3.36032 10.421 3.21967 10.2804C3.07902 10.1397 3 9.94894 3 9.75003V3.75153C3 3.55261 3.07902 3.36185 3.21967 3.2212C3.36032 3.08054 3.55109 3.00153 3.75 3.00153H9.75C9.94891 3.00153 10.1397 3.08054 10.2803 3.2212C10.421 3.36185 10.5 3.55261 10.5 3.75153V9.75003C10.5 9.94894 10.421 10.1397 10.2803 10.2804C10.1397 10.421 9.94891 10.5 9.75 10.5H3.75ZM14.25 10.5C14.0511 10.5 13.8603 10.421 13.7197 10.2804C13.579 10.1397 13.5 9.94894 13.5 9.75003V3.75153C13.5 3.55261 13.579 3.36185 13.7197 3.2212C13.8603 3.08054 14.0511 3.00153 14.25 3.00153H20.2485C20.4474 3.00153 20.6382 3.08054 20.7788 3.2212C20.9195 3.36185 20.9985 3.55261 20.9985 3.75153V9.75003C20.9985 9.94894 20.9195 10.1397 20.7788 10.2804C20.6382 10.421 20.4474 10.5 20.2485 10.5H14.25ZM3.75 21C3.55109 21 3.36032 20.921 3.21967 20.7804C3.07902 20.6397 3 20.4489 3 20.25V14.25C3 14.0511 3.07902 13.8603 3.21967 13.7197C3.36032 13.579 3.55109 13.5 3.75 13.5H9.75C9.94891 13.5 10.1397 13.579 10.2803 13.7197C10.421 13.8603 10.5 14.0511 10.5 14.25V20.25C10.5 20.4489 10.421 20.6397 10.2803 20.7804C10.1397 20.921 9.94891 21 9.75 21H3.75ZM14.25 21C14.0511 21 13.8603 20.921 13.7197 20.7804C13.579 20.6397 13.5 20.4489 13.5 20.25V14.25C13.5 14.0511 13.579 13.8603 13.7197 13.7197C13.8603 13.579 14.0511 13.5 14.25 13.5H20.2485C20.4474 13.5 20.6382 13.579 20.7788 13.7197C20.9195 13.8603 20.9985 14.0511 20.9985 14.25V20.25C20.9985 20.4489 20.9195 20.6397 20.7788 20.7804C20.6382 20.921 20.4474 21 20.2485 21H14.25Z" fill="white"/>
</svg>
