<svg width="18" height="18" viewBox="0 0 18 18" fill="none" xmlns="http://www.w3.org/2000/svg">
<path d="M12.9375 11.2501C12.5164 11.2522 12.1012 11.3489 11.7225 11.5329C11.3438 11.7169 11.0112 11.9835 10.7493 12.3132L6.63745 9.74261C6.78731 9.25896 6.78731 8.74127 6.63745 8.25761L10.7493 5.68699C11.1667 6.20377 11.7535 6.55615 12.4057 6.68172C13.058 6.80729 13.7337 6.69793 14.3131 6.37303C14.8924 6.04813 15.3381 5.52864 15.5711 4.9066C15.8042 4.28457 15.8095 3.60012 15.5862 2.97452C15.363 2.34892 14.9254 1.82254 14.3512 1.48862C13.777 1.1547 13.1031 1.03481 12.4489 1.15017C11.7948 1.26553 11.2026 1.6087 10.7772 2.11889C10.3518 2.62909 10.1208 3.27337 10.125 3.93761C10.1276 4.18915 10.1655 4.43908 10.2375 4.68011L6.12558 7.25074C5.76256 6.79375 5.26638 6.46102 4.7058 6.29865C4.14522 6.13628 3.54801 6.15233 2.99696 6.34456C2.4459 6.53679 1.9683 6.89569 1.63035 7.37151C1.2924 7.84733 1.11084 8.41649 1.11084 9.00011C1.11084 9.58374 1.2924 10.1529 1.63035 10.6287C1.9683 11.1045 2.4459 11.4634 2.99696 11.6557C3.54801 11.8479 4.14522 11.8639 4.7058 11.7016C5.26638 11.5392 5.76256 11.2065 6.12558 10.7495L10.2375 13.3201C10.1655 13.5611 10.1276 13.8111 10.125 14.0626C10.125 14.6189 10.2899 15.1626 10.5989 15.6252C10.908 16.0877 11.3472 16.4482 11.8612 16.661C12.3751 16.8739 12.9406 16.9296 13.4861 16.8211C14.0317 16.7126 14.5329 16.4447 14.9262 16.0514C15.3195 15.658 15.5874 15.1569 15.6959 14.6113C15.8044 14.0657 15.7487 13.5002 15.5359 12.9863C15.323 12.4724 14.9625 12.0331 14.5 11.7241C14.0375 11.4151 13.4937 11.2501 12.9375 11.2501V11.2501ZM12.9375 2.25011C13.2712 2.25011 13.5975 2.34909 13.875 2.53451C14.1525 2.71993 14.3688 2.98349 14.4965 3.29184C14.6242 3.60019 14.6576 3.93949 14.5925 4.26683C14.5274 4.59417 14.3667 4.89486 14.1307 5.13086C13.8947 5.36686 13.594 5.52758 13.2667 5.59269C12.9393 5.6578 12.6 5.62438 12.2917 5.49666C11.9833 5.36894 11.7198 5.15265 11.5343 4.87514C11.3489 4.59763 11.25 4.27137 11.25 3.93761C11.25 3.49006 11.4277 3.06084 11.7442 2.74437C12.0607 2.4279 12.4899 2.25011 12.9375 2.25011V2.25011ZM3.93745 10.6876C3.60369 10.6876 3.27743 10.5886 2.99993 10.4032C2.72242 10.2178 2.50613 9.95424 2.3784 9.64589C2.25068 9.33754 2.21726 8.99824 2.28238 8.6709C2.34749 8.34356 2.50821 8.04287 2.74421 7.80687C2.98021 7.57087 3.28089 7.41015 3.60824 7.34504C3.93558 7.27993 4.27488 7.31335 4.58323 7.44107C4.89158 7.56879 5.15513 7.78508 5.34056 8.06259C5.52598 8.3401 5.62495 8.66636 5.62495 9.00011C5.62495 9.44767 5.44716 9.87689 5.13069 10.1934C4.81423 10.5098 4.385 10.6876 3.93745 10.6876ZM12.9375 15.7501C12.6037 15.7501 12.2774 15.6511 11.9999 15.4657C11.7224 15.2803 11.5061 15.0167 11.3784 14.7084C11.2507 14.4 11.2173 14.0607 11.2824 13.7334C11.3475 13.4061 11.5082 13.1054 11.7442 12.8694C11.9802 12.6334 12.2809 12.4727 12.6082 12.4075C12.9356 12.3424 13.2749 12.3758 13.5832 12.5036C13.8916 12.6313 14.1551 12.8476 14.3406 13.1251C14.526 13.4026 14.625 13.7289 14.625 14.0626C14.625 14.5102 14.4472 14.9394 14.1307 15.2559C13.8142 15.5723 13.385 15.7501 12.9375 15.7501V15.7501Z" fill="#70BC4E"/>
</svg>
