<svg width="18" height="18" viewBox="0 0 18 18" fill="none" xmlns="http://www.w3.org/2000/svg">
<g clip-path="url(#clip0_292_3976)">
<path d="M1.5 9C1.5 13.1422 4.85775 16.5 9 16.5C13.1422 16.5 16.5 13.1422 16.5 9C16.5 4.85775 13.1422 1.5 9 1.5C4.85775 1.5 1.5 4.85775 1.5 9Z" stroke="#70BC4E" stroke-width="1.5" stroke-linecap="round" stroke-linejoin="round"/>
<path d="M9.74991 1.5376C9.74991 1.5376 11.9999 4.5001 11.9999 9.0001C11.9999 13.5001 9.74991 16.4626 9.74991 16.4626M8.24991 16.4626C8.24991 16.4626 5.99991 13.5001 5.99991 9.0001C5.99991 4.5001 8.24991 1.5376 8.24991 1.5376M1.97241 11.6251H16.0274M1.97241 6.3751H16.0274" stroke="#70BC4E" stroke-width="1.5" stroke-linecap="round" stroke-linejoin="round"/>
</g>
<defs>
<clipPath id="clip0_292_3976">
<rect width="18" height="18" fill="white"/>
</clipPath>
</defs>
</svg>
