<svg width="20" height="18" viewBox="0 0 20 18" fill="none" xmlns="http://www.w3.org/2000/svg">
<path fill-rule="evenodd" clip-rule="evenodd" d="M1.5999 0.600098C1.28164 0.600098 0.976418 0.726526 0.751374 0.951569C0.526331 1.17661 0.399902 1.48184 0.399902 1.8001V16.2001C0.399902 16.5184 0.526331 16.8236 0.751374 17.0486C0.976418 17.2737 1.28164 17.4001 1.5999 17.4001C1.91816 17.4001 2.22339 17.2737 2.44843 17.0486C2.67347 16.8236 2.7999 16.5184 2.7999 16.2001V1.8001C2.7999 1.48184 2.67347 1.17661 2.44843 0.951569C2.22339 0.726526 1.91816 0.600098 1.5999 0.600098V0.600098ZM13.9515 11.7517C13.7329 11.978 13.612 12.2811 13.6147 12.5958C13.6174 12.9104 13.7436 13.2114 13.9661 13.4339C14.1886 13.6564 14.4896 13.7826 14.8042 13.7853C15.1189 13.788 15.422 13.6671 15.6483 13.4485L19.2483 9.8485C19.4733 9.62346 19.5996 9.3183 19.5996 9.0001C19.5996 8.6819 19.4733 8.37673 19.2483 8.1517L15.6483 4.5517C15.5376 4.43709 15.4052 4.34567 15.2588 4.28278C15.1124 4.21989 14.9549 4.18678 14.7956 4.1854C14.6362 4.18401 14.4782 4.21437 14.3308 4.27471C14.1833 4.33505 14.0493 4.42415 13.9366 4.53682C13.824 4.64949 13.7349 4.78348 13.6745 4.93095C13.6142 5.07843 13.5838 5.23644 13.5852 5.39578C13.5866 5.55511 13.6197 5.71258 13.6826 5.85898C13.7455 6.00539 13.8369 6.1378 13.9515 6.2485L15.5031 7.8001H6.3999C6.08164 7.8001 5.77642 7.92653 5.55137 8.15157C5.32633 8.37661 5.1999 8.68184 5.1999 9.0001C5.1999 9.31836 5.32633 9.62358 5.55137 9.84863C5.77642 10.0737 6.08164 10.2001 6.3999 10.2001H15.5031L13.9515 11.7517V11.7517Z" fill="#F26767"/>
</svg>
