<svg width="18" height="18" viewBox="0 0 18 18" fill="none" xmlns="http://www.w3.org/2000/svg">
<path d="M15.8297 12.2544L14.2944 9.41994V6.46875C14.2944 3.5222 11.8972 1.125 8.95069 1.125C6.00414 1.125 3.60694 3.5222 3.60694 6.46875V9.41994L2.0716 12.2543C2.00197 12.3829 1.96693 12.5273 1.9699 12.6734C1.97288 12.8196 2.01376 12.9624 2.08856 13.088C2.16336 13.2136 2.2695 13.3176 2.39658 13.3898C2.52366 13.462 2.66733 13.5 2.8135 13.5H5.86981C5.86128 13.5935 5.85698 13.6874 5.85691 13.7812C5.85691 14.6018 6.18285 15.3887 6.76304 15.9689C7.34323 16.5491 8.13014 16.875 8.95066 16.875C9.77117 16.875 10.5581 16.5491 11.1383 15.9689C11.7185 15.3887 12.0444 14.6018 12.0444 13.7812C12.0444 13.6863 12.0399 13.5927 12.0315 13.5H15.0878C15.234 13.5 15.3776 13.462 15.5047 13.3898C15.6317 13.3175 15.7379 13.2135 15.8126 13.088C15.8874 12.9624 15.9283 12.8195 15.9313 12.6734C15.9343 12.5273 15.8992 12.3829 15.8296 12.2544H15.8297ZM10.9194 13.7812C10.9197 14.0518 10.8641 14.3195 10.7563 14.5676C10.6484 14.8158 10.4906 15.039 10.2926 15.2234C10.0947 15.4078 9.8608 15.5495 9.60566 15.6395C9.35051 15.7295 9.07956 15.7659 8.8097 15.7465C8.53984 15.7272 8.27687 15.6524 8.0372 15.5268C7.79753 15.4013 7.58631 15.2277 7.41672 15.0169C7.24713 14.8061 7.12281 14.5626 7.05152 14.3016C6.98023 14.0406 6.9635 13.7677 7.00237 13.5H10.899C10.9125 13.5931 10.9193 13.6871 10.9194 13.7812V13.7812ZM3.28568 12.375L4.73194 9.70506V6.46875C4.73194 5.34987 5.17642 4.27681 5.96758 3.48564C6.75875 2.69447 7.83181 2.25 8.95069 2.25C10.0696 2.25 11.1426 2.69447 11.9338 3.48564C12.725 4.27681 13.1694 5.34987 13.1694 6.46875V9.70506L14.6156 12.375H3.28568Z" fill="#70BC4E"/>
</svg>
