<svg width="16" height="12" viewBox="0 0 16 12" fill="none" xmlns="http://www.w3.org/2000/svg">
<path d="M14.9426 5.2215C15.2981 5.6865 15.2981 6.31425 14.9426 6.7785C13.8229 8.24025 11.1364 11.25 7.99989 11.25C4.86339 11.25 2.17689 8.24025 1.05714 6.7785C0.884174 6.55585 0.790283 6.28194 0.790283 6C0.790283 5.71806 0.884174 5.44415 1.05714 5.2215C2.17689 3.75975 4.86339 0.75 7.99989 0.75C11.1364 0.75 13.8229 3.75975 14.9426 5.2215V5.2215Z" stroke="#AFAFAF" stroke-width="1.5" stroke-linecap="round" stroke-linejoin="round"/>
<path d="M8 8.25C9.24264 8.25 10.25 7.24264 10.25 6C10.25 4.75736 9.24264 3.75 8 3.75C6.75736 3.75 5.75 4.75736 5.75 6C5.75 7.24264 6.75736 8.25 8 8.25Z" stroke="#AFAFAF" stroke-width="1.5" stroke-linecap="round" stroke-linejoin="round"/>
</svg>
