<svg width="21" height="24" viewBox="0 0 21 24" fill="none" xmlns="http://www.w3.org/2000/svg">
<g clip-path="url(#clip0_202_1327)">
<path opacity="0.3" d="M16.0892 10.5C16.5089 10.625 16.9084 10.7946 17.2879 11.0089C17.6673 11.2232 18.0647 11.5491 18.4798 11.9866C18.895 12.4241 19.2499 12.9397 19.5446 13.5335C19.8392 14.1272 20.0848 14.8951 20.2812 15.8371C20.4776 16.779 20.5758 17.8348 20.5758 19.0045C20.5758 20.3795 20.1294 21.5558 19.2365 22.5335C18.3437 23.5112 17.2678 24 16.0089 24H4.57136C3.31243 24 2.23654 23.5112 1.34368 22.5335C0.450823 21.5558 0.00439453 20.3795 0.00439453 19.0045C0.00439453 17.8348 0.102609 16.779 0.299037 15.8371C0.495466 14.8951 0.741002 14.1272 1.03564 13.5335C1.33029 12.9397 1.6852 12.4241 2.10038 11.9866C2.51556 11.5491 2.91288 11.2232 3.29234 11.0089C3.67181 10.7946 4.07136 10.625 4.491 10.5C3.78564 9.38393 3.43297 8.16964 3.43297 6.85714C3.43297 5.92857 3.61377 5.04241 3.97538 4.19866C4.33698 3.35491 4.82582 2.625 5.44189 2.00893C6.05797 1.39286 6.78788 0.904018 7.63163 0.542411C8.47538 0.180804 9.36154 0 10.2901 0C11.2187 0 12.1048 0.180804 12.9486 0.542411C13.7923 0.904018 14.5223 1.39286 15.1383 2.00893C15.7544 2.625 16.2432 3.35491 16.6048 4.19866C16.9664 5.04241 17.1473 5.92857 17.1473 6.85714C17.1473 8.16964 16.7946 9.38393 16.0892 10.5ZM10.2901 1.71429C8.87047 1.71429 7.65841 2.21652 6.65395 3.22098C5.64948 4.22545 5.14725 5.4375 5.14725 6.85714C5.14725 8.27679 5.64948 9.48884 6.65395 10.4933C7.65841 11.4978 8.87047 12 10.2901 12C11.7098 12 12.9218 11.4978 13.9263 10.4933C14.9307 9.48884 15.433 8.27679 15.433 6.85714C15.433 5.4375 14.9307 4.22545 13.9263 3.22098C12.9218 2.21652 11.7098 1.71429 10.2901 1.71429ZM16.0089 22.2857C16.7946 22.2857 17.4664 21.9665 18.0245 21.3281C18.5825 20.6897 18.8615 19.9152 18.8615 19.0045C18.8615 16.8705 18.5111 15.1875 17.8102 13.9554C17.1093 12.7232 16.1026 12.0759 14.7901 12.0134C13.4955 13.1473 11.9955 13.7143 10.2901 13.7143C8.58475 13.7143 7.08475 13.1473 5.79011 12.0134C4.47761 12.0759 3.47091 12.7232 2.77002 13.9554C2.06913 15.1875 1.71868 16.8705 1.71868 19.0045C1.71868 19.9152 1.9977 20.6897 2.55573 21.3281C3.11377 21.9665 3.78564 22.2857 4.57136 22.2857H16.0089Z" fill="white"/>
</g>
<defs>
<clipPath id="clip0_202_1327">
<rect width="20.58" height="24" fill="white"/>
</clipPath>
</defs>
</svg>
