<svg width="35" height="35" viewBox="0 0 35 35" fill="none" xmlns="http://www.w3.org/2000/svg">
<rect width="35" height="35" rx="17.5" fill="#EA5050" fill-opacity="0.1"/>
<path d="M13.2795 13.2795C13.4586 13.1006 13.7014 13 13.9546 13C14.2078 13 14.4506 13.1006 14.6296 13.2795L18.0058 16.6557L21.3819 13.2795C21.562 13.1056 21.8032 13.0094 22.0535 13.0116C22.3038 13.0137 22.5433 13.1142 22.7203 13.2912C22.8974 13.4682 22.9978 13.7077 23 13.958C23.0021 14.2084 22.9059 14.4495 22.732 14.6296L19.3558 18.0058L22.732 21.3819C22.9059 21.562 23.0021 21.8032 23 22.0535C22.9978 22.3038 22.8974 22.5433 22.7203 22.7203C22.5433 22.8974 22.3038 22.9978 22.0535 23C21.8032 23.0021 21.562 22.9059 21.3819 22.732L18.0058 19.3558L14.6296 22.732C14.4495 22.9059 14.2084 23.0021 13.958 23C13.7077 22.9978 13.4682 22.8974 13.2912 22.7203C13.1142 22.5433 13.0137 22.3038 13.0116 22.0535C13.0094 21.8032 13.1056 21.562 13.2795 21.3819L16.6557 18.0058L13.2795 14.6296C13.1006 14.4506 13 14.2078 13 13.9546C13 13.7014 13.1006 13.4586 13.2795 13.2795Z" fill="#EA5050"/>
</svg>
