<svg width="25" height="24" viewBox="0 0 25 24" fill="none" xmlns="http://www.w3.org/2000/svg">
<path d="M8.5 15V3.6C8.5 3.44087 8.56321 3.28826 8.67574 3.17574C8.78826 3.06321 8.94087 3 9.1 3H20.9C21.0591 3 21.2117 3.06321 21.3243 3.17574C21.4368 3.28826 21.5 3.44087 21.5 3.6V17C21.5 18.0609 21.0786 19.0783 20.3284 19.8284C19.5783 20.5786 18.5609 21 17.5 21M12.5 11H17.5H12.5ZM12.5 7H17.5H12.5Z" stroke="white" stroke-width="1.5" stroke-linecap="round" stroke-linejoin="round"/>
<path d="M5.5 15H12.9C13.231 15 13.503 15.267 13.53 15.597C13.653 17.115 14.28 21 17.5 21H6.5C5.70435 21 4.94129 20.6839 4.37868 20.1213C3.81607 19.5587 3.5 18.7956 3.5 18V17C3.5 16.4696 3.71071 15.9609 4.08579 15.5858C4.46086 15.2107 4.96957 15 5.5 15V15Z" stroke="white" stroke-width="1.5" stroke-linecap="round" stroke-linejoin="round"/>
</svg>
