<svg width="21" height="20" viewBox="0 0 21 20" fill="none" xmlns="http://www.w3.org/2000/svg">
<path d="M1.2652 0.461258L19.6912 9.54046C19.7917 9.58997 19.8763 9.66663 19.9355 9.76174C19.9946 9.85686 20.026 9.96664 20.026 10.0787C20.026 10.1907 19.9946 10.3005 19.9355 10.3956C19.8763 10.4907 19.7917 10.5673 19.6912 10.6169L1.264 19.6961C1.16077 19.7468 1.04513 19.7667 0.930868 19.7536C0.816604 19.7405 0.708527 19.6947 0.619509 19.6219C0.53049 19.5491 0.464281 19.4522 0.428768 19.3428C0.393255 19.2334 0.389934 19.1161 0.4192 19.0049L2.782 10.0841L0.418 1.15366C0.388249 1.0422 0.391262 0.924519 0.426679 0.814726C0.462096 0.704932 0.528415 0.607677 0.617691 0.53461C0.706966 0.461543 0.815414 0.415763 0.930043 0.402754C1.04467 0.389744 1.16062 0.410056 1.264 0.461258H1.2652ZM1.9168 2.12086L3.8488 9.41926L3.9232 9.40486L4 9.40006H12.4C12.5499 9.39978 12.6945 9.45565 12.8053 9.55667C12.9161 9.65768 12.9851 9.79652 12.9987 9.94584C13.0122 10.0952 12.9693 10.2441 12.8785 10.3635C12.7877 10.4828 12.6555 10.5637 12.508 10.5905L12.4 10.6001H4C3.96298 10.6002 3.92603 10.597 3.8896 10.5905L1.918 18.0377L18.0676 10.0793L1.9168 2.12086Z" fill="white"/>
</svg>
