<svg width="18" height="18" viewBox="0 0 18 18" fill="none" xmlns="http://www.w3.org/2000/svg">
<path d="M8.25933 1.50639C8.51532 0.831203 9.48408 0.831203 9.74086 1.50639L11.3968 6.09352C11.4546 6.24295 11.5563 6.37134 11.6885 6.46175C11.8208 6.55216 11.9774 6.60034 12.1376 6.59992H16.207C16.9589 6.59992 17.2869 7.5359 16.6958 7.99429L13.7999 10.5999C13.6702 10.6996 13.5754 10.8378 13.5291 10.9948C13.4828 11.1517 13.4874 11.3193 13.5423 11.4734L14.5998 15.9558C14.8574 16.6758 14.0239 17.2942 13.3935 16.851L9.46008 14.355C9.32537 14.2603 9.16474 14.2095 9.0001 14.2095C8.83545 14.2095 8.67482 14.2603 8.54012 14.355L4.60669 16.851C3.97712 17.2942 3.14276 16.675 3.40035 15.9558L4.4579 11.4734C4.51276 11.3193 4.51738 11.1517 4.47111 10.9948C4.42483 10.8378 4.33003 10.6996 4.20031 10.5999L1.30444 7.99429C0.712465 7.5359 1.04205 6.59992 1.79242 6.59992H5.86184C6.02206 6.60045 6.17868 6.55232 6.31095 6.4619C6.44323 6.37147 6.54493 6.24301 6.6026 6.09352L8.25853 1.50639H8.25933Z" stroke="#70BC4E" stroke-width="1.5" stroke-linecap="round" stroke-linejoin="round"/>
</svg>
