<svg width="17" height="18" viewBox="0 0 17 18" fill="none" xmlns="http://www.w3.org/2000/svg">
<path d="M7.80592 1.97475C8.04592 1.34175 8.95417 1.34175 9.19492 1.97475L10.7474 6.27525C10.8016 6.41534 10.897 6.53571 11.021 6.62047C11.1449 6.70523 11.2917 6.7504 11.4419 6.75H15.2572C15.9622 6.75 16.2697 7.6275 15.7154 8.05725L13.0004 10.5C12.8788 10.5935 12.7899 10.7231 12.7465 10.8702C12.7032 11.0174 12.7075 11.1745 12.7589 11.319L13.7504 15.5212C13.9919 16.1962 13.2104 16.776 12.6194 16.3605L8.93167 14.0205C8.80538 13.9317 8.65478 13.8841 8.50042 13.8841C8.34606 13.8841 8.19546 13.9317 8.06917 14.0205L4.38142 16.3605C3.79117 16.776 3.00892 16.1955 3.25042 15.5212L4.24192 11.319C4.29336 11.1745 4.29769 11.0174 4.25431 10.8702C4.21092 10.7231 4.12204 10.5935 4.00042 10.5L1.28542 8.05725C0.730424 7.6275 1.03942 6.75 1.74292 6.75H5.55817C5.70839 6.7505 5.85522 6.70538 5.97924 6.6206C6.10325 6.53583 6.1986 6.4154 6.25267 6.27525L7.80517 1.97475H7.80592Z" stroke="#70BC4E" stroke-width="1.5" stroke-linecap="round" stroke-linejoin="round"/>
</svg>
