<svg width="18" height="18" viewBox="0 0 18 18" fill="none" xmlns="http://www.w3.org/2000/svg">
<path d="M5.4001 1.7998H12.6001C13.0775 1.7998 13.5353 1.98945 13.8729 2.32701C14.2105 2.66458 14.4001 3.12241 14.4001 3.5998V14.3998C14.4001 14.8772 14.2105 15.335 13.8729 15.6726C13.5353 16.0102 13.0775 16.1998 12.6001 16.1998H5.4001C4.92271 16.1998 4.46487 16.0102 4.12731 15.6726C3.78974 15.335 3.6001 14.8772 3.6001 14.3998V3.5998C3.6001 3.12241 3.78974 2.66458 4.12731 2.32701C4.46487 1.98945 4.92271 1.7998 5.4001 1.7998V1.7998ZM5.4001 2.6998C5.1614 2.6998 4.93248 2.79463 4.7637 2.96341C4.59492 3.13219 4.5001 3.36111 4.5001 3.5998V14.3998C4.5001 14.6385 4.59492 14.8674 4.7637 15.0362C4.93248 15.205 5.1614 15.2998 5.4001 15.2998H12.6001C12.8388 15.2998 13.0677 15.205 13.2365 15.0362C13.4053 14.8674 13.5001 14.6385 13.5001 14.3998V3.5998C13.5001 3.36111 13.4053 3.13219 13.2365 2.96341C13.0677 2.79463 12.8388 2.6998 12.6001 2.6998H5.4001ZM11.7001 5.8498C11.7001 5.95513 11.6632 6.05713 11.5958 6.13804C11.5284 6.21895 11.4347 6.27365 11.3311 6.2926L11.2501 6.2998H6.7501C6.63765 6.30001 6.52919 6.25811 6.44609 6.18235C6.36299 6.10659 6.31127 6.00246 6.30111 5.89047C6.29095 5.77847 6.32309 5.66674 6.3912 5.57726C6.4593 5.48778 6.55844 5.42704 6.6691 5.407L6.7501 5.3998H11.2501C11.3694 5.3998 11.4839 5.44722 11.5683 5.53161C11.6527 5.616 11.7001 5.73046 11.7001 5.8498ZM11.7001 8.9998C11.7001 9.10513 11.6632 9.20713 11.5958 9.28804C11.5284 9.36895 11.4347 9.42365 11.3311 9.4426L11.2501 9.4498H6.7501C6.63765 9.45001 6.52919 9.40811 6.44609 9.33235C6.36299 9.25659 6.31127 9.15246 6.30111 9.04047C6.29095 8.92847 6.32309 8.81674 6.3912 8.72726C6.4593 8.63778 6.55844 8.57704 6.6691 8.557L6.7501 8.5498H11.2501C11.3694 8.5498 11.4839 8.59721 11.5683 8.68161C11.6527 8.766 11.7001 8.88046 11.7001 8.9998ZM11.7001 12.1498C11.7001 12.2551 11.6632 12.3571 11.5958 12.438C11.5284 12.5189 11.4347 12.5736 11.3311 12.5926L11.2501 12.5998H6.7501C6.63765 12.6 6.52919 12.5581 6.44609 12.4823C6.36299 12.4066 6.31127 12.3025 6.30111 12.1905C6.29095 12.0785 6.32309 11.9667 6.3912 11.8773C6.4593 11.7878 6.55844 11.727 6.6691 11.707L6.7501 11.6998H11.2501C11.3694 11.6998 11.4839 11.7472 11.5683 11.8316C11.6527 11.916 11.7001 12.0305 11.7001 12.1498Z" fill="#70BC4E"/>
</svg>
