<svg width="4" height="15" viewBox="0 0 4 15" fill="none" xmlns="http://www.w3.org/2000/svg">
<path fill-rule="evenodd" clip-rule="evenodd" d="M2 0C2.39782 0 2.77936 0.158035 3.06066 0.43934C3.34196 0.720644 3.5 1.10218 3.5 1.5C3.5 1.89782 3.34196 2.27936 3.06066 2.56066C2.77936 2.84196 2.39782 3 2 3C1.60218 3 1.22064 2.84196 0.93934 2.56066C0.658036 2.27936 0.5 1.89782 0.5 1.5C0.5 1.10218 0.658036 0.720644 0.93934 0.43934C1.22064 0.158035 1.60218 0 2 0ZM2 6C2.39782 6 2.77936 6.15804 3.06066 6.43934C3.34196 6.72064 3.5 7.10218 3.5 7.5C3.5 7.89782 3.34196 8.27936 3.06066 8.56066C2.77936 8.84196 2.39782 9 2 9C1.60218 9 1.22064 8.84196 0.93934 8.56066C0.658036 8.27936 0.5 7.89782 0.5 7.5C0.5 7.10218 0.658036 6.72064 0.93934 6.43934C1.22064 6.15804 1.60218 6 2 6ZM2 12C2.39782 12 2.77936 12.158 3.06066 12.4393C3.34196 12.7206 3.5 13.1022 3.5 13.5C3.5 13.8978 3.34196 14.2794 3.06066 14.5607C2.77936 14.842 2.39782 15 2 15C1.60218 15 1.22064 14.842 0.93934 14.5607C0.658036 14.2794 0.5 13.8978 0.5 13.5C0.5 13.1022 0.658036 12.7206 0.93934 12.4393C1.22064 12.158 1.60218 12 2 12Z" fill="#AFAFAF"/>
</svg>
