<svg width="35" height="35" viewBox="0 0 35 35" fill="none" xmlns="http://www.w3.org/2000/svg">
<rect width="35" height="35" rx="17.5" fill="#33F58D" fill-opacity="0.1"/>
<path d="M22.1347 13.3188C22.3421 13.1121 22.618 12.9978 22.9043 13C23.1906 13.0023 23.4649 13.121 23.6692 13.331C23.8736 13.541 23.992 13.8259 23.9996 14.1257C24.0072 14.4254 23.9033 14.7165 23.7098 14.9376L17.8363 22.6305C17.7353 22.7444 17.6134 22.8358 17.4779 22.8993C17.3424 22.9627 17.196 22.9969 17.0476 22.9998C16.8992 23.0027 16.7518 22.9742 16.6141 22.916C16.4765 22.8579 16.3514 22.7712 16.2465 22.6613L12.3514 18.5821C12.2429 18.4762 12.1559 18.3485 12.0956 18.2067C12.0352 18.0649 12.0028 17.9118 12.0002 17.7565C11.9976 17.6013 12.0248 17.4471 12.0804 17.3031C12.1359 17.1591 12.2185 17.0283 12.3234 16.9185C12.4282 16.8087 12.5531 16.7222 12.6906 16.664C12.828 16.6059 12.9753 16.5773 13.1235 16.5801C13.2718 16.5828 13.418 16.6168 13.5534 16.68C13.6888 16.7432 13.8107 16.8343 13.9118 16.9479L16.9943 20.1746L22.1067 13.3527C22.1159 13.3409 22.1258 13.3295 22.1362 13.3188H22.1347Z" fill="#33F58D"/>
</svg>
