<svg width="34" height="34" viewBox="0 0 34 34" fill="none" xmlns="http://www.w3.org/2000/svg">
<rect width="34" height="34" rx="10" fill="#F7F7F7"/>
<path fill-rule="evenodd" clip-rule="evenodd" d="M8 13.625C8 13.0283 8.23705 12.456 8.65901 12.034C9.08097 11.6121 9.65326 11.375 10.25 11.375H18.6875C19.2332 11.3749 19.7604 11.5732 20.1708 11.9329C20.5812 12.2926 20.8469 12.7892 20.9184 13.3302L24.4171 11.7755C24.5884 11.6992 24.776 11.6669 24.9629 11.6815C25.1498 11.6962 25.3301 11.7573 25.4874 11.8594C25.6447 11.9614 25.7739 12.1012 25.8635 12.2659C25.953 12.4306 25.9999 12.6151 26 12.8026V21.1974C25.9998 21.3847 25.9529 21.569 25.8634 21.7336C25.774 21.8982 25.6448 22.0379 25.4877 22.1399C25.3306 22.2419 25.1505 22.3031 24.9637 22.3179C24.7769 22.3327 24.5895 22.3006 24.4182 22.2245L20.9184 20.6698C20.8469 21.2108 20.5812 21.7074 20.1708 22.0671C19.7604 22.4268 19.2332 22.6251 18.6875 22.625H10.25C9.65326 22.625 9.08097 22.3879 8.65901 21.966C8.23705 21.544 8 20.9717 8 20.375V13.625ZM20.9375 19.4469L24.875 21.1974V12.8026L20.9375 14.5531V19.4469ZM10.25 12.5C9.95163 12.5 9.66548 12.6185 9.4545 12.8295C9.24353 13.0405 9.125 13.3266 9.125 13.625V20.375C9.125 20.6734 9.24353 20.9595 9.4545 21.1705C9.66548 21.3815 9.95163 21.5 10.25 21.5H18.6875C18.9859 21.5 19.272 21.3815 19.483 21.1705C19.694 20.9595 19.8125 20.6734 19.8125 20.375V13.625C19.8125 13.3266 19.694 13.0405 19.483 12.8295C19.272 12.6185 18.9859 12.5 18.6875 12.5H10.25Z" fill="#70BC4E"/>
</svg>
